<?xml version="1.0" standalone="no"?>
<!DOCTYPE svg PUBLIC "-//W3C//DTD SVG 20010904//EN"
 "http://www.w3.org/TR/2001/REC-SVG-20010904/DTD/svg10.dtd">
<svg version="1.0" xmlns="http://www.w3.org/2000/svg"
 width="512.000000pt" height="512.000000pt" viewBox="0 0 512.000000 512.000000"
 preserveAspectRatio="xMidYMid meet">
<metadata>
Created by potrace 1.11, written by Peter Selinger 2001-2013
</metadata>
<g transform="translate(0.000000,512.000000) scale(0.100000,-0.100000)"
fill="#000000" stroke="none">
<path d="M3869 5055 c-54 -42 -93 -65 -110 -65 -35 0 -61 -53 -57 -113 2 -34
8 -44 29 -54 15 -7 31 -19 37 -25 5 -7 94 -177 197 -378 103 -201 189 -367
191 -369 7 -7 273 199 327 253 105 105 151 216 151 366 0 153 -61 304 -167
418 l-31 32 -242 0 -241 0 -84 -65z m407 -57 c60 -40 135 -147 163 -231 24
-71 27 -173 7 -230 -8 -21 -27 -56 -42 -79 -34 -49 -162 -154 -174 -142 -18
21 -300 577 -295 584 9 15 134 100 167 115 58 25 120 19 174 -17z"/>
<path d="M3375 4680 c-108 -82 -206 -150 -216 -150 -30 0 -69 -42 -76 -82 -8
-54 2 -82 38 -99 28 -12 54 -58 221 -384 104 -203 192 -373 196 -377 5 -5 466
333 500 367 7 6 -59 145 -68 145 -4 0 -85 -59 -180 -130 l-174 -130 -29 52
c-36 66 -97 186 -97 192 0 2 56 46 124 97 l125 92 -35 69 c-19 37 -37 68 -39
68 -3 0 -61 -42 -128 -94 l-123 -94 -52 104 -52 104 174 130 173 130 -36 70
c-20 38 -39 70 -42 70 -3 0 -95 -67 -204 -150z"/>
<path d="M2783 4205 c-36 -14 -110 -59 -172 -104 -60 -45 -117 -81 -128 -81
-42 0 -93 -62 -93 -114 0 -38 10 -55 40 -71 23 -12 66 -89 221 -395 107 -209
197 -380 200 -380 4 0 97 66 148 106 2 2 -29 63 -68 138 -39 74 -71 139 -71
144 0 6 24 27 53 48 220 160 300 313 252 480 -60 211 -204 298 -382 229z m158
-205 c37 -39 59 -90 59 -139 0 -60 -82 -164 -189 -240 l-30 -21 -54 102 c-30
57 -66 125 -80 152 l-24 50 52 43 c75 60 141 93 188 93 34 0 46 -6 78 -40z"/>
<path d="M2119 3695 c-64 -23 -113 -52 -208 -124 -52 -39 -102 -71 -110 -71
-35 0 -78 -38 -87 -76 -14 -57 -6 -83 29 -104 27 -16 63 -80 226 -397 106
-208 195 -380 197 -382 2 -2 37 21 77 52 l74 55 -73 145 -73 144 67 49 c152
112 222 204 252 333 10 43 10 65 0 110 -38 173 -147 282 -279 280 -31 0 -72
-6 -92 -14z m130 -200 c68 -58 80 -179 24 -258 -16 -23 -62 -68 -103 -99 l-74
-57 -78 150 c-43 82 -78 151 -78 154 0 8 124 99 159 117 52 27 113 24 150 -7z"/>
<path d="M4810 3662 c-25 -21 -58 -46 -74 -58 l-29 -21 164 -305 164 -306 42
31 43 30 0 66 c-1 64 -5 74 -133 333 l-132 266 -45 -36z"/>
<path d="M4520 3442 c-25 -21 -58 -46 -74 -58 l-29 -21 163 -304 c90 -167 163
-305 164 -306 4 -5 121 90 123 100 1 7 -66 150 -150 319 l-152 306 -45 -36z"/>
<path d="M4230 3222 c-25 -21 -58 -46 -74 -58 l-29 -21 163 -304 c90 -167 163
-305 164 -306 4 -5 121 90 123 100 1 7 -66 150 -150 319 l-152 306 -45 -36z"/>
<path d="M1389 3157 c-156 -44 -297 -200 -330 -365 -37 -194 50 -434 215 -590
78 -74 131 -96 231 -96 102 0 170 31 265 120 169 160 202 391 88 618 -45 91
-126 203 -173 242 -85 69 -202 97 -296 71z m151 -202 c70 -49 160 -189 194
-304 19 -64 21 -158 4 -212 -14 -50 -69 -114 -119 -139 -108 -56 -217 5 -316
176 -107 182 -108 351 -1 450 63 59 79 66 140 62 42 -3 67 -12 98 -33z"/>
<path d="M3940 3002 c-25 -21 -58 -46 -74 -58 l-29 -21 163 -304 c90 -167 163
-305 164 -306 4 -5 121 90 123 100 1 7 -66 150 -150 319 l-152 306 -45 -36z"/>
<path d="M5091 2909 c-15 -45 -14 -95 4 -129 9 -17 18 -30 20 -30 3 0 5 43 5
95 0 98 -10 119 -29 64z"/>
<path d="M4885 2758 c-85 -24 -123 -127 -75 -205 47 -77 169 -35 193 68 13 52
-25 125 -73 141 -8 3 -28 1 -45 -4z"/>
<path d="M3514 2661 c-59 -15 -140 -67 -201 -129 -191 -193 -187 -479 10 -748
91 -123 186 -178 307 -178 61 0 85 5 128 27 201 99 306 276 288 486 -17 202
-161 440 -314 516 -56 28 -161 41 -218 26z m142 -203 c92 -62 195 -234 214
-359 21 -141 -33 -258 -142 -303 -84 -36 -162 -7 -239 88 -59 72 -122 198
-140 278 -20 95 10 204 74 266 75 73 154 83 233 30z"/>
<path d="M660 2597 c-58 -24 -110 -57 -219 -139 -35 -26 -73 -48 -83 -48 -11
0 -35 -15 -54 -34 -29 -29 -34 -41 -34 -80 0 -42 3 -48 37 -70 34 -21 58 -64
228 -400 105 -206 193 -376 196 -376 4 0 38 24 76 54 l70 55 -81 160 -81 160
22 23 22 22 179 -92 179 -92 81 61 c45 34 82 64 82 68 0 3 -81 47 -180 96 -99
49 -180 92 -180 96 0 3 12 16 26 30 14 13 40 51 57 84 28 53 32 69 32 145 0
98 -20 152 -80 218 -75 83 -183 105 -295 59z m139 -173 c31 -22 61 -90 61
-140 0 -58 -44 -119 -141 -194 -44 -34 -82 -61 -83 -59 -2 2 -33 63 -70 136
l-66 132 68 50 c118 90 181 110 231 75z"/>
<path d="M4595 2539 c-42 -12 -82 -52 -96 -98 -10 -35 -9 -45 12 -88 28 -57
68 -74 119 -53 35 15 74 62 83 101 13 52 -25 125 -73 141 -8 3 -28 1 -45 -3z"/>
<path d="M4305 2319 c-42 -12 -82 -52 -96 -98 -10 -35 -9 -45 12 -88 28 -57
68 -74 119 -53 35 15 74 62 83 101 13 52 -25 125 -73 141 -8 3 -28 1 -45 -3z"/>
<path d="M43 2128 l-43 -9 0 -85 c0 -46 2 -84 4 -84 2 0 23 7 47 16 31 11 60
13 97 9 l52 -6 0 79 0 80 -31 6 c-40 8 -73 6 -126 -6z"/>
<path d="M2759 2101 c-145 -57 -285 -213 -325 -365 -40 -151 5 -339 121 -501
101 -142 202 -200 335 -193 165 10 340 149 420 337 l23 53 -71 144 c-57 114
-72 153 -72 189 0 39 -4 46 -30 60 -53 27 -99 15 -115 -33 -3 -9 -57 -55 -120
-102 -63 -47 -115 -89 -115 -93 0 -7 58 -127 65 -135 2 -2 41 26 86 61 l84 65
53 -100 52 -100 -20 -33 c-47 -76 -142 -134 -219 -135 -99 0 -188 80 -264 239
-35 72 -41 95 -45 166 -6 113 14 173 82 240 73 73 130 98 211 93 l65 -4 0 77
c0 61 -3 78 -16 83 -32 12 -140 5 -185 -13z"/>
<path d="M420 1500 c0 -5 -9 -34 -21 -64 -38 -102 -142 -190 -239 -203 -42 -6
-86 8 -133 39 l-27 19 0 -111 c0 -129 -4 -125 111 -125 69 0 83 4 160 42 112
55 185 130 238 245 22 46 42 97 45 114 5 31 4 32 -51 43 -69 13 -83 14 -83 1z"/>
<path d="M1960 1494 c-108 -39 -216 -144 -274 -264 -26 -56 -31 -78 -34 -166
-3 -71 1 -119 12 -165 47 -184 180 -365 312 -426 49 -22 66 -25 138 -21 68 3
91 10 143 37 35 19 89 59 120 91 99 98 143 202 143 340 0 91 -19 171 -65 267
-99 210 -219 312 -375 320 -52 2 -89 -2 -120 -13z m121 -168 c80 -28 158 -117
216 -243 56 -122 66 -217 33 -307 -31 -82 -123 -156 -193 -156 -91 0 -200 107
-274 268 -41 89 -55 200 -33 278 17 59 90 140 145 159 49 17 61 17 106 1z"/>
<path d="M1105 854 c-33 -25 -66 -51 -73 -58 -10 -10 25 -85 183 -392 107
-210 195 -386 195 -392 0 -8 30 -12 98 -12 l97 0 177 135 176 134 -36 68 c-19
37 -37 70 -38 72 -2 2 -74 -49 -159 -113 -86 -64 -162 -119 -169 -122 -8 -3
-78 123 -200 361 -103 201 -188 365 -189 365 -1 -1 -29 -21 -62 -46z"/>
</g>
</svg>
